<?xml version="1.0" encoding="UTF-8" standalone="no"?>
<!DOCTYPE svg PUBLIC "-//W3C//DTD SVG 1.1//EN" "http://www.w3.org/Graphics/SVG/1.1/DTD/svg11.dtd">
<svg width="100%" height="100%" viewBox="0 0 174 233" version="1.1" xmlns="http://www.w3.org/2000/svg" xmlns:xlink="http://www.w3.org/1999/xlink" xml:space="preserve" xmlns:serif="http://www.serif.com/" style="fill-rule:evenodd;clip-rule:evenodd;stroke-linecap:round;stroke-linejoin:round;stroke-miterlimit:1.5;">
    <g transform="matrix(1,0,0,1,-1392.03,-1264.02)">
        <g>
            <g transform="matrix(0.408684,0,0,0.402995,1112.61,1115.31)">
                <path d="M895.765,376.759C1004.3,376.759 1100.12,536.596 1100.12,691.712C1100.12,846.829 1004.3,938.862 895.765,938.862C787.235,938.862 691.368,858.837 691.368,703.72C691.368,548.604 787.235,376.759 895.765,376.759Z" style="fill:none;stroke:black;stroke-width:15.4px;"/>
            </g>
            <g transform="matrix(0.422286,0,0,0.422286,1105.01,1100.16)">
                <path d="M740.088,528.389L755.696,542.999L790.281,517.237L820.677,549.168L852.878,522.413L889.41,554.83L930.439,521.263L967.678,550.22L991.286,514.426L1027.76,543.456L1035,530.743" style="fill:none;stroke:black;stroke-width:14.8px;stroke-linecap:square;"/>
            </g>
            <g transform="matrix(0.422286,2.42565e-17,-2.42565e-17,-0.224216,1100.83,1589.59)">
                <path d="M748.334,576.21L790.281,517.237L820.677,549.168L851.265,505.306L885.875,546.587L922.876,502.516L958.861,548.152L994.081,524.045L1032.62,576.156" style="fill:none;stroke:black;stroke-width:18.49px;stroke-linecap:square;"/>
            </g>
            <g transform="matrix(0.499776,0,0,-0.601683,1035.11,1684.84)">
                <path d="M755.696,542.999L790.281,517.237L820.677,549.168L852.878,522.413L889.41,554.83L930.439,521.263L967.678,550.22L991.286,514.426L1027.76,543.456" style="fill:none;stroke:black;stroke-width:15.07px;stroke-linecap:square;"/>
            </g>
            <g transform="matrix(0.422286,0,0,0.422286,1103.1,1097.2)">
                <ellipse cx="706.881" cy="695.902" rx="7.323" ry="12.933" style="fill:none;stroke:black;stroke-width:6.91px;stroke-linecap:square;"/>
            </g>
            <g transform="matrix(0.422286,0,0,0.422286,1258.19,1097.2)">
                <ellipse cx="706.881" cy="695.902" rx="7.323" ry="12.933" style="fill:none;stroke:black;stroke-width:6.91px;stroke-linecap:square;"/>
            </g>
            <g transform="matrix(0.623326,0,0,0.530991,1100.41,1025.85)">
                <ellipse cx="706.881" cy="695.902" rx="7.323" ry="12.933" style="fill:none;stroke:black;stroke-width:5.04px;stroke-linecap:square;"/>
            </g>
            <g transform="matrix(0.623326,0,0,0.530991,975.467,1025.85)">
                <ellipse cx="706.881" cy="695.902" rx="7.323" ry="12.933" style="fill:none;stroke:black;stroke-width:5.04px;stroke-linecap:square;"/>
            </g>
            <g transform="matrix(0.756786,0,0,0.530991,898.88,1030.37)">
                <ellipse cx="706.881" cy="695.902" rx="7.323" ry="12.933" style="fill:none;stroke:black;stroke-width:4.46px;stroke-linecap:square;"/>
            </g>
            <g transform="matrix(0.756786,0,0,0.530991,987.836,1029.27)">
                <ellipse cx="706.881" cy="695.902" rx="7.323" ry="12.933" style="fill:none;stroke:black;stroke-width:4.46px;stroke-linecap:square;"/>
            </g>
            <g transform="matrix(1.02665,0,0,0.589129,776.74,992.704)">
                <ellipse cx="706.881" cy="695.902" rx="7.323" ry="12.933" style="fill:none;stroke:black;stroke-width:3.48px;stroke-linecap:square;"/>
            </g>
            <g transform="matrix(1.02665,0,0,0.589129,730.168,993.015)">
                <ellipse cx="706.881" cy="695.902" rx="7.323" ry="12.933" style="fill:none;stroke:black;stroke-width:3.48px;stroke-linecap:square;"/>
            </g>
            <g transform="matrix(1.17671,0,0,0.633689,647.423,964.272)">
                <ellipse cx="706.881" cy="695.902" rx="7.323" ry="12.933" style="fill:none;stroke:black;stroke-width:3.09px;stroke-linecap:square;"/>
            </g>
            <g transform="matrix(0.422286,0,0,0.422286,1103.1,1132.13)">
                <ellipse cx="706.881" cy="695.902" rx="7.323" ry="12.933" style="fill:none;stroke:black;stroke-width:6.91px;stroke-linecap:square;"/>
            </g>
            <g transform="matrix(0.422286,0,0,0.422286,1258.19,1132.13)">
                <ellipse cx="706.881" cy="695.902" rx="7.323" ry="12.933" style="fill:none;stroke:black;stroke-width:6.91px;stroke-linecap:square;"/>
            </g>
            <g transform="matrix(0.623326,0,0,0.530991,1100.41,1060.79)">
                <ellipse cx="706.881" cy="695.902" rx="7.323" ry="12.933" style="fill:none;stroke:black;stroke-width:5.04px;stroke-linecap:square;"/>
            </g>
            <g transform="matrix(0.623326,0,0,0.530991,975.467,1060.79)">
                <ellipse cx="706.881" cy="695.902" rx="7.323" ry="12.933" style="fill:none;stroke:black;stroke-width:5.04px;stroke-linecap:square;"/>
            </g>
            <g transform="matrix(0.756786,0,0,0.530991,898.88,1065.3)">
                <ellipse cx="706.881" cy="695.902" rx="7.323" ry="12.933" style="fill:none;stroke:black;stroke-width:4.46px;stroke-linecap:square;"/>
            </g>
            <g transform="matrix(0.756786,0,0,0.530991,987.836,1065.2)">
                <ellipse cx="706.881" cy="695.902" rx="7.323" ry="12.933" style="fill:none;stroke:black;stroke-width:4.46px;stroke-linecap:square;"/>
            </g>
            <g transform="matrix(1.02665,0,0,0.589129,776.549,1028.44)">
                <ellipse cx="706.881" cy="695.902" rx="7.323" ry="12.933" style="fill:none;stroke:black;stroke-width:3.48px;stroke-linecap:square;"/>
            </g>
            <g transform="matrix(1.02665,0,0,0.589129,730.168,1027.95)">
                <ellipse cx="706.881" cy="695.902" rx="7.323" ry="12.933" style="fill:none;stroke:black;stroke-width:3.48px;stroke-linecap:square;"/>
            </g>
            <g transform="matrix(1.19193,0,0,0.647064,636.558,989.54)">
                <ellipse cx="706.881" cy="695.902" rx="7.323" ry="12.933" style="fill:none;stroke:black;stroke-width:3.04px;stroke-linecap:square;"/>
            </g>
            <g transform="matrix(0.422286,0,0,0.422286,1103.1,1097.2)">
                <path d="M696.467,733.05C824.395,779.13 955.341,784.968 1081.12,738.527" style="fill:none;stroke:black;stroke-width:6.91px;stroke-linecap:square;"/>
            </g>
            <g transform="matrix(0.385203,0,0,0.422286,1135.03,1131.77)">
                <path d="M696.467,733.05C824.395,779.13 955.341,784.968 1081.12,738.527" style="fill:none;stroke:black;stroke-width:7.22px;stroke-linecap:square;"/>
            </g>
        </g>
    </g>
</svg>
