<?xml version="1.0" encoding="UTF-8" standalone="no"?>
<!DOCTYPE svg PUBLIC "-//W3C//DTD SVG 1.1//EN" "http://www.w3.org/Graphics/SVG/1.1/DTD/svg11.dtd">
<svg width="100%" height="100%" viewBox="0 0 174 233" version="1.1" xmlns="http://www.w3.org/2000/svg" xmlns:xlink="http://www.w3.org/1999/xlink" xml:space="preserve" xmlns:serif="http://www.serif.com/" style="fill-rule:evenodd;clip-rule:evenodd;stroke-linecap:round;stroke-linejoin:round;stroke-miterlimit:1.5;">
    <g transform="matrix(1,0,0,1,-1950.99,-1451.12)">
        <g transform="matrix(1,0,0,1,7.25756,-75.6796)">
            <g transform="matrix(0.408684,0,0,0.402995,1664.31,1378.09)">
                <path d="M895.765,376.759C1004.3,376.759 1100.12,536.596 1100.12,691.712C1100.12,846.829 1004.3,938.862 895.765,938.862C787.235,938.862 691.368,858.837 691.368,703.72C691.368,548.604 787.235,376.759 895.765,376.759Z" style="fill:none;stroke:rgb(242,175,13);stroke-width:15.4px;"/>
            </g>
            <circle cx="1994.29" cy="1611" r="14.481" style="fill:none;stroke:rgb(242,175,13);stroke-width:6.25px;stroke-linecap:square;"/>
            <g transform="matrix(1,0,0,1,-14.4811,42.9869)">
                <circle cx="1994.29" cy="1611" r="14.481" style="fill:rgb(242,175,13);stroke:rgb(242,175,13);stroke-width:6.25px;stroke-linecap:square;"/>
            </g>
            <g transform="matrix(1,0,0,1,-5.7637,85.8154)">
                <circle cx="1994.29" cy="1611" r="14.481" style="fill:none;stroke:rgb(242,175,13);stroke-width:6.25px;stroke-linecap:square;"/>
            </g>
            <g transform="matrix(1,0,0,1,29.4783,114.778)">
                <circle cx="1994.29" cy="1611" r="14.481" style="fill:rgb(242,175,13);stroke:rgb(242,175,13);stroke-width:6.25px;stroke-linecap:square;"/>
            </g>
            <g transform="matrix(2.25736,0,0,2.25736,-2438.74,-1972.47)">
                <circle cx="1994.29" cy="1611" r="14.481" style="fill:none;stroke:rgb(242,175,13);stroke-width:6.25px;stroke-linecap:square;"/>
            </g>
            <g transform="matrix(0.543047,0,0,0.543047,939.527,678.635)">
                <circle cx="1994.29" cy="1611" r="14.481" style="fill:none;stroke:rgb(242,175,13);stroke-width:6.25px;stroke-linecap:square;"/>
            </g>
            <g transform="matrix(0.543047,0,0,0.543047,955.255,702.509)">
                <circle cx="1994.29" cy="1611" r="14.481" style="fill:none;stroke:rgb(242,175,13);stroke-width:6.25px;stroke-linecap:square;"/>
            </g>
            <g transform="matrix(0.857154,0,0,0.857154,353.66,283.25)">
                <circle cx="1994.29" cy="1611" r="14.481" style="fill:rgb(242,175,13);stroke:rgb(242,175,13);stroke-width:6.25px;stroke-linecap:square;"/>
            </g>
            <g transform="matrix(0.543047,0,0,0.543047,963.119,678.635)">
                <circle cx="1994.29" cy="1611" r="14.481" style="fill:none;stroke:rgb(242,175,13);stroke-width:6.25px;stroke-linecap:square;"/>
            </g>
        </g>
    </g>
</svg>
