<?xml version="1.0" encoding="UTF-8" standalone="no"?>
<!DOCTYPE svg PUBLIC "-//W3C//DTD SVG 1.1//EN" "http://www.w3.org/Graphics/SVG/1.1/DTD/svg11.dtd">
<svg width="100%" height="100%" viewBox="0 0 174 233" version="1.1" xmlns="http://www.w3.org/2000/svg" xmlns:xlink="http://www.w3.org/1999/xlink" xml:space="preserve" xmlns:serif="http://www.serif.com/" style="fill-rule:evenodd;clip-rule:evenodd;stroke-linecap:round;stroke-linejoin:round;stroke-miterlimit:1.5;">
    <g transform="matrix(1,0,0,1,-1688.1,-1692.05)">
        <g>
            <g transform="matrix(0.408684,0,0,0.402995,1408.67,1543.34)">
                <path d="M895.765,376.759C1004.3,376.759 1100.12,536.596 1100.12,691.712C1100.12,846.829 1004.3,938.862 895.765,938.862C787.235,938.862 691.368,858.837 691.368,703.72C691.368,548.604 787.235,376.759 895.765,376.759Z" style="fill:none;stroke:rgb(147,13,242);stroke-width:15.4px;"/>
            </g>
            <path d="M1698.08,1795.49C1743.75,1775.33 1778.61,1751 1800.28,1706.28" style="fill:none;stroke:rgb(147,13,242);stroke-width:6.25px;stroke-linecap:square;"/>
            <g transform="matrix(1.15425,0,0,1.12078,-265.298,-198.496)">
                <path d="M1698.08,1795.49C1743.75,1775.33 1778.61,1751 1800.28,1706.28" style="fill:none;stroke:rgb(147,13,242);stroke-width:6.25px;stroke-linecap:square;"/>
            </g>
            <g transform="matrix(1.32664,0,0,1.23208,-549.955,-348.327)">
                <path d="M1698.08,1795.49C1743.75,1775.33 1778.61,1751 1800.28,1706.28" style="fill:none;stroke:rgb(147,13,242);stroke-width:6.25px;stroke-linecap:square;"/>
            </g>
            <g transform="matrix(1.36941,0,0,1.20493,-618.414,-285.447)">
                <path d="M1698.08,1795.49C1743.75,1775.33 1778.61,1751 1800.28,1706.28" style="fill:none;stroke:rgb(147,13,242);stroke-width:6.25px;stroke-linecap:square;"/>
            </g>
            <g transform="matrix(1.16789,0,0,1.07306,-246.303,-17.0837)">
                <path d="M1698.08,1795.49C1743.75,1775.33 1778.07,1755.89 1799.74,1711.17" style="fill:none;stroke:rgb(147,13,242);stroke-width:6.25px;stroke-linecap:square;"/>
            </g>
            <g transform="matrix(1.02776,0,0,0.827764,4.62789,429.803)">
                <path d="M1698.08,1795.49C1743.75,1775.33 1779.31,1751.79 1800.97,1707.07" style="fill:none;stroke:rgb(147,13,242);stroke-width:6.25px;stroke-linecap:square;"/>
            </g>
            <g transform="matrix(1,0,0,1,0,-2.84452)">
                <circle cx="1713.45" cy="1835.7" r="6.498" style="fill:none;stroke:rgb(147,13,242);stroke-width:6.25px;stroke-linecap:square;"/>
            </g>
            <g transform="matrix(1,0,0,1,67.587,-45.2977)">
                <circle cx="1713.45" cy="1835.7" r="6.498" style="fill:none;stroke:rgb(147,13,242);stroke-width:6.25px;stroke-linecap:square;"/>
            </g>
            <g transform="matrix(1,0,0,1,95.4071,-75.2647)">
                <circle cx="1713.45" cy="1835.7" r="6.498" style="fill:rgb(147,13,242);stroke:rgb(147,13,242);stroke-width:6.25px;stroke-linecap:square;"/>
            </g>
            <g transform="matrix(1,0,0,1,34.232,-20.7664)">
                <circle cx="1713.45" cy="1835.7" r="6.498" style="fill:rgb(147,13,242);stroke:rgb(147,13,242);stroke-width:6.25px;stroke-linecap:square;"/>
            </g>
            <g transform="matrix(1,0,0,1,26.3814,52.4578)">
                <circle cx="1713.45" cy="1835.7" r="6.498" style="fill:rgb(147,13,242);stroke:rgb(147,13,242);stroke-width:6.25px;stroke-linecap:square;"/>
            </g>
            <g transform="matrix(1,0,0,1,95.7624,11.1452)">
                <circle cx="1713.45" cy="1835.7" r="6.498" style="fill:rgb(147,13,242);stroke:rgb(147,13,242);stroke-width:6.25px;stroke-linecap:square;"/>
            </g>
            <g transform="matrix(0.892965,0,0,0.892965,306.346,179.201)">
                <circle cx="1713.45" cy="1835.7" r="6.498" style="fill:none;stroke:rgb(147,13,242);stroke-width:6.25px;stroke-linecap:square;"/>
            </g>
            <g transform="matrix(1,0,0,1,60.6134,34.5359)">
                <circle cx="1713.45" cy="1835.7" r="6.498" style="fill:none;stroke:rgb(147,13,242);stroke-width:6.25px;stroke-linecap:square;"/>
            </g>
        </g>
    </g>
</svg>
