<?xml version="1.0" encoding="UTF-8" standalone="no"?>
<!DOCTYPE svg PUBLIC "-//W3C//DTD SVG 1.1//EN" "http://www.w3.org/Graphics/SVG/1.1/DTD/svg11.dtd">
<svg width="100%" height="100%" viewBox="0 0 174 233" version="1.1" xmlns="http://www.w3.org/2000/svg" xmlns:xlink="http://www.w3.org/1999/xlink" xml:space="preserve" xmlns:serif="http://www.serif.com/" style="fill-rule:evenodd;clip-rule:evenodd;stroke-linecap:round;stroke-linejoin:round;stroke-miterlimit:1.5;">
    <g transform="matrix(1,0,0,1,-2050.88,-1185.04)">
        <g>
            <g transform="matrix(0.408684,0,0,0.402995,1771.46,1036.34)">
                <path d="M895.765,376.759C1004.3,376.759 1100.12,536.596 1100.12,691.712C1100.12,846.829 1004.3,938.862 895.765,938.862C787.235,938.862 691.368,858.837 691.368,703.72C691.368,548.604 787.235,376.759 895.765,376.759Z" style="fill:none;stroke:rgb(13,40,242);stroke-width:15.4px;"/>
            </g>
            <g transform="matrix(0.78587,0,0,0.712726,437.616,317.648)">
                <path d="M2143.72,1251.46L2150.15,1268.72L2170.97,1268.72L2154.13,1279.39L2160.56,1296.66L2143.72,1285.99L2126.87,1296.66L2133.31,1279.39L2116.46,1268.72L2137.28,1268.72L2143.72,1251.46Z" style="fill:rgb(13,40,242);stroke:rgb(13,40,242);stroke-width:6.25px;stroke-linecap:square;"/>
            </g>
            <g transform="matrix(1.37383,0,0,1.5717,-771.041,-714.496)">
                <path d="M2143.72,1251.46L2150.15,1268.72L2170.97,1268.72L2154.13,1279.39L2160.56,1296.66L2143.72,1285.99L2126.87,1296.66L2133.31,1279.39L2116.46,1268.72L2137.28,1268.72L2143.72,1251.46Z" style="fill:rgb(13,40,242);stroke:rgb(13,40,242);stroke-width:6.25px;stroke-linecap:square;"/>
            </g>
            <g transform="matrix(0.870713,0,0,0.849854,226.166,234.984)">
                <path d="M2143.72,1251.46L2150.15,1268.72L2170.97,1268.72L2154.13,1279.39L2160.56,1296.66L2143.72,1285.99L2126.87,1296.66L2133.31,1279.39L2116.46,1268.72L2137.28,1268.72L2143.72,1251.46Z" style="fill:rgb(13,40,242);stroke:rgb(13,40,242);stroke-width:6.25px;stroke-linecap:square;"/>
            </g>
            <g transform="matrix(1.09293,0,0,1.16289,-201.888,-108.319)">
                <path d="M2143.72,1251.46L2150.15,1268.72L2170.97,1268.72L2154.13,1279.39L2160.56,1296.66L2143.72,1285.99L2126.87,1296.66L2133.31,1279.39L2116.46,1268.72L2137.28,1268.72L2143.72,1251.46Z" style="fill:rgb(13,40,242);stroke:rgb(13,40,242);stroke-width:6.25px;stroke-linecap:square;"/>
            </g>
        </g>
    </g>
</svg>
