<?xml version="1.0" encoding="UTF-8" standalone="no"?>
<!DOCTYPE svg PUBLIC "-//W3C//DTD SVG 1.1//EN" "http://www.w3.org/Graphics/SVG/1.1/DTD/svg11.dtd">
<svg width="100%" height="100%" viewBox="0 0 174 233" version="1.1" xmlns="http://www.w3.org/2000/svg" xmlns:xlink="http://www.w3.org/1999/xlink" xml:space="preserve" xmlns:serif="http://www.serif.com/" style="fill-rule:evenodd;clip-rule:evenodd;stroke-linecap:round;stroke-linejoin:round;stroke-miterlimit:1.5;">
    <g transform="matrix(1,0,0,1,-1716.46,-1068.79)">
        <g transform="matrix(1,0,0,1,-41.6269,-134.855)">
            <g transform="matrix(0.408684,0,0,0.402995,1478.67,1054.93)">
                <path d="M895.765,376.759C1004.3,376.759 1100.12,536.596 1100.12,691.712C1100.12,846.829 1004.3,938.862 895.765,938.862C787.235,938.862 691.368,858.837 691.368,703.72C691.368,548.604 787.235,376.759 895.765,376.759Z" style="fill:none;stroke:black;stroke-width:15.4px;"/>
            </g>
            <path d="M1786.38,1263.4L1886.56,1236.38C1878.09,1226.93 1865.25,1213.22 1844.74,1213.81C1817.75,1214.59 1797.64,1242.4 1786.38,1263.4Z" style="fill:rgb(242,13,13);stroke:rgb(242,13,13);stroke-width:8.33px;stroke-linecap:square;"/>
            <g transform="matrix(1,0,0,1,-15.9971,56.6295)">
                <path d="M1790.55,1237.62L1920.57,1206.77C1912.09,1191.42 1906.95,1184.77 1903.53,1180.75C1900.44,1177.12 1804.51,1203.07 1802.38,1206.77C1797.65,1214.98 1794.27,1226.22 1790.55,1237.62Z" style="fill:rgb(242,94,13);stroke:rgb(242,94,13);stroke-width:8.33px;stroke-linecap:square;"/>
            </g>
            <g transform="matrix(1.19613,0,0,1.15181,-373.928,-93.9611)">
                <path d="M1791.86,1238.3L1914.75,1209.38C1912.4,1200.41 1908.02,1185.92 1904.89,1180.4C1902.53,1176.22 1797.18,1203.95 1796.19,1208.13C1794.23,1216.37 1792.21,1226.62 1791.86,1238.3Z" style="fill:rgb(229,242,13);stroke:rgb(229,242,13);stroke-width:8.33px;stroke-linecap:square;"/>
            </g>
            <g transform="matrix(1.19613,0,0,1.15181,-365.262,-56.8724)">
                <path d="M1787.45,1237.83L1910.76,1211.97C1911.45,1200.11 1909.58,1183.16 1907.51,1179C1905.4,1174.76 1783.88,1203.93 1784.04,1208.24C1784.31,1215.58 1784.65,1225.07 1787.45,1237.83Z" style="fill:rgb(13,242,40);stroke:rgb(13,242,40);stroke-width:8.33px;stroke-linecap:square;"/>
            </g>
            <g transform="matrix(1.19613,0,0,1.15181,-364.571,-10.398)">
                <path d="M1806.11,1231.35L1901.53,1211.55C1907.55,1196.74 1909.87,1179.49 1910.33,1174.74C1910.69,1170.92 1786.9,1195.26 1787.06,1199.56C1787.32,1206.9 1797.49,1223.25 1806.11,1231.35Z" style="fill:rgb(13,40,242);stroke:rgb(13,40,242);stroke-width:8.33px;stroke-linecap:square;"/>
            </g>
            <g transform="matrix(-1,0,0,-1,3683.18,2646.48)">
                <path d="M1773.93,1259.4L1887.62,1238.59C1879.16,1229.15 1856.98,1219.57 1836.47,1220.15C1809.48,1220.93 1785.18,1238.39 1773.93,1259.4Z" style="fill:rgb(147,13,242);stroke:rgb(147,13,242);stroke-width:8.33px;stroke-linecap:square;"/>
            </g>
        </g>
    </g>
</svg>
