<?xml version="1.0" encoding="UTF-8" standalone="no"?>
<!DOCTYPE svg PUBLIC "-//W3C//DTD SVG 1.1//EN" "http://www.w3.org/Graphics/SVG/1.1/DTD/svg11.dtd">
<svg width="100%" height="100%" viewBox="0 0 1475 838" version="1.1" xmlns="http://www.w3.org/2000/svg" xmlns:xlink="http://www.w3.org/1999/xlink" xml:space="preserve" xmlns:serif="http://www.serif.com/" style="fill-rule:evenodd;clip-rule:evenodd;">
    <g transform="matrix(1,0,0,1,-209.153,-106.534)">
        <g transform="matrix(1,0,0,1,-102.885,-71.0775)">
            <g id="rect4249" transform="matrix(4.16667,0,0,4.16667,376.514,242.035)">
                <path d="M47.875,0C43.443,0 39.875,3.568 39.875,8L39.875,10.688C38.458,11.56 37.148,12.589 35.969,13.75C35.928,13.79 35.884,13.834 35.844,13.875C31.552,17.184 28.247,21.691 26.688,27.313L1.657,117.563C-3.083,134.646 2.142,153.795 18.969,159.375L45.625,168.188C62.452,173.768 79.804,166.89 87.406,150.875L108.437,106.594L214.497,106.594L235.528,150.875C243.129,166.89 260.482,173.768 277.309,168.188L303.965,159.375C320.792,153.795 326.017,134.645 321.277,117.563L296.247,27.315C293.967,19.099 287.997,13.265 280.587,10.128L280.587,8.003C280.587,3.571 277.019,0.003 272.587,0.003L226.025,0.003C221.785,0.003 218.347,3.277 218.056,7.44L102.436,7.44C102.146,3.276 98.705,0.003 94.465,0.003L47.871,0.003L47.875,0Z" style="fill:white;fill-rule:nonzero;stroke:black;stroke-width:7.5px;"/>
            </g>
            <g id="g3897" transform="matrix(4.16667,0,0,4.16667,-938.736,-1837.59)">
                <path id="path3244" d="M582.63,539.71C582.63,547.939 575.859,554.71 567.63,554.71C559.401,554.71 552.63,547.939 552.63,539.71C552.63,531.481 559.401,524.71 567.63,524.71C575.859,524.71 582.63,531.481 582.63,539.71Z" style="fill:none;fill-rule:nonzero;stroke:black;stroke-width:3px;"/>
                <path id="path3246" d="M582.63,591.13C582.63,599.359 575.859,606.13 567.63,606.13C559.401,606.13 552.63,599.359 552.63,591.13C552.63,582.901 559.401,576.13 567.63,576.13C575.859,576.13 582.63,582.901 582.63,591.13Z" style="fill:none;fill-rule:nonzero;stroke:black;stroke-width:3px;"/>
                <path id="path3248" d="M578.35,565.47C578.35,557.241 585.121,550.47 593.35,550.47C601.579,550.47 608.35,557.241 608.35,565.47C608.35,573.699 601.579,580.47 593.35,580.47C585.121,580.47 578.35,573.699 578.35,565.47Z" style="fill:none;fill-rule:nonzero;stroke:black;stroke-width:3px;"/>
                <path id="path3250" d="M526.93,565.47C526.93,557.241 533.701,550.47 541.93,550.47C550.159,550.47 556.93,557.241 556.93,565.47C556.93,573.699 550.159,580.47 541.93,580.47C533.701,580.47 526.93,573.699 526.93,565.47Z" style="fill:none;fill-rule:nonzero;stroke:black;stroke-width:3px;"/>
                <path id="path3322" d="M403.99,551.7C403.241,551.764 402.554,552.146 402.104,552.748L394.28,562.668C393.553,563.612 393.553,564.937 394.28,565.881L402.104,575.871C402.6,576.528 403.376,576.916 404.2,576.919L422.363,576.989C422.369,576.989 422.375,576.989 422.382,576.989C423.828,576.989 425.017,575.799 425.017,574.353C425.017,574.347 425.017,574.34 425.017,574.334L425.017,554.704C425.028,553.27 423.866,552.077 422.432,552.049L404.269,551.7C404.176,551.695 404.083,551.695 403.99,551.7L403.99,551.7Z" style="fill:none;fill-rule:nonzero;stroke:black;stroke-width:3px;"/>
                <path id="path3324" d="M366.97,551.5C367.719,551.564 368.406,551.946 368.856,552.548L376.68,562.468C377.407,563.412 377.407,564.737 376.68,565.681L368.856,575.671C368.36,576.328 367.584,576.716 366.761,576.719L348.597,576.789C348.591,576.789 348.585,576.789 348.578,576.789C347.132,576.789 345.943,575.599 345.943,574.153C345.943,574.147 345.943,574.14 345.943,574.134L345.943,554.504C345.932,553.07 347.094,551.877 348.528,551.849L366.691,551.5C366.784,551.495 366.877,551.495 366.97,551.5L366.97,551.5Z" style="fill:none;fill-rule:nonzero;stroke:black;stroke-width:3px;"/>
                <path id="path3332" d="M398.02,582.75C397.956,582.001 397.574,581.314 396.972,580.864L387.052,573.04C386.108,572.313 384.783,572.313 383.839,573.04L373.849,580.864C373.192,581.36 372.804,582.136 372.801,582.959L372.731,601.122C372.731,601.129 372.731,601.135 372.731,601.142C372.731,602.588 373.921,603.777 375.367,603.777C375.373,603.777 375.38,603.777 375.386,603.777L395.016,603.777C396.45,603.788 397.643,602.626 397.671,601.192L398.02,583.029C398.025,582.936 398.025,582.843 398.02,582.75L398.02,582.75Z" style="fill:none;fill-rule:nonzero;stroke:black;stroke-width:3px;"/>
                <path id="path3334" d="M398.23,545.73C398.166,546.479 397.784,547.166 397.182,547.616L387.262,555.44C386.318,556.167 384.993,556.167 384.049,555.44L374.059,547.616C373.402,547.12 373.014,546.344 373.011,545.521L372.941,527.358C372.941,527.351 372.941,527.345 372.941,527.338C372.941,525.892 374.131,524.703 375.577,524.703C375.583,524.703 375.59,524.703 375.596,524.703L395.226,524.703C396.66,524.692 397.853,525.854 397.88,527.288L398.23,545.451C398.235,545.544 398.235,545.637 398.23,545.73L398.23,545.73Z" style="fill:none;fill-rule:nonzero;stroke:black;stroke-width:3px;"/>
                <path id="path4289" d="M507.13,552.5C507.827,552.56 508.492,552.929 508.911,553.49L516.3,562.858C516.964,563.72 516.964,565.031 516.3,565.893L508.911,575.327C508.451,575.938 507.696,576.315 506.932,576.317L485.556,576.383C484.241,576.393 483.039,575.191 483.049,573.876L483.049,555.337C483.038,554.043 484.197,552.855 485.49,552.83L506.866,552.5C506.954,552.495 507.042,552.495 507.13,552.5L507.13,552.5Z" style="fill:none;fill-rule:nonzero;stroke:black;stroke-width:3px;"/>
                <path id="path4291" d="M447.44,552.31C446.743,552.37 446.078,552.739 445.659,553.3L438.27,562.668C437.606,563.53 437.606,564.841 438.27,565.703L445.659,575.137C446.119,575.748 446.874,576.125 447.638,576.127L469.014,576.193C470.329,576.203 471.531,575.001 471.521,573.686L471.521,555.147C471.532,553.853 470.373,552.665 469.08,552.64L447.704,552.31C447.616,552.305 447.528,552.305 447.44,552.31L447.44,552.31Z" style="fill:none;fill-rule:nonzero;stroke:black;stroke-width:3px;"/>
            </g>
        </g>
    </g>
</svg>
