<?xml version="1.0" encoding="UTF-8" standalone="no"?>
<!DOCTYPE svg PUBLIC "-//W3C//DTD SVG 1.1//EN" "http://www.w3.org/Graphics/SVG/1.1/DTD/svg11.dtd">
<svg width="100%" height="100%" viewBox="0 0 153 301" version="1.1" xmlns="http://www.w3.org/2000/svg" xmlns:xlink="http://www.w3.org/1999/xlink" xml:space="preserve" xmlns:serif="http://www.serif.com/" style="fill-rule:evenodd;clip-rule:evenodd;stroke-linecap:square;stroke-linejoin:round;stroke-miterlimit:1.5;">
    <g transform="matrix(1,0,0,1,-445.842,-2030.6)">
        <g transform="matrix(1,0,0,1,-253.145,502.285)">
            <path d="M832.959,1761.64C834.126,1758.37 836.32,1755.89 840.428,1754.88" style="fill:none;stroke:black;stroke-width:2.5px;"/>
            <path d="M810.934,1762.38C812.046,1757.57 816.063,1754.52 820.543,1753.94C825.468,1753.29 828.787,1757.36 830.819,1761.64" style="fill:none;stroke:black;stroke-width:2.5px;"/>
            <path d="M791.697,1758.56C793.109,1756.59 794.881,1755.69 797.565,1755.84C802.013,1756.63 803.71,1759.41 805.565,1762.38" style="fill:none;stroke:black;stroke-width:2.5px;"/>
            <path d="M797.565,1754.88C800.019,1748.96 803.242,1746.52 807.059,1746.77C811.66,1746.85 814.606,1750.03 817.165,1753.94" style="fill:none;stroke:black;stroke-width:2.5px;"/>
            <path d="M815.62,1750.72C825.396,1750.71 834.173,1751.11 840.428,1752.54" style="fill:none;stroke:black;stroke-width:2.5px;"/>
            <path d="M791.697,1751.16C793.955,1750.9 796.128,1750.7 798.304,1750.72" style="fill:none;stroke:black;stroke-width:2.5px;"/>
            <path d="M819.753,1777.26C822.694,1777.49 827.554,1777.12 827.062,1777.23" style="fill:none;stroke:black;stroke-width:2.5px;"/>
            <g transform="matrix(1,0,0,1,-0.0347313,7.40077)">
                <path d="M819.753,1777.26C822.694,1777.49 827.554,1777.12 827.062,1777.23" style="fill:none;stroke:black;stroke-width:2.5px;"/>
            </g>
            <g transform="matrix(1,0,0,1,-0.0347313,14.8627)">
                <path d="M819.753,1777.26C822.694,1777.49 827.554,1777.12 827.062,1777.23" style="fill:none;stroke:black;stroke-width:2.5px;"/>
            </g>
            <path d="M804.821,1777.05C807.506,1777.35 808.654,1777.21 811.414,1777.12" style="fill:none;stroke:black;stroke-width:2.5px;"/>
            <g transform="matrix(1,0,0,1,0,7.17152)">
                <path d="M804.821,1776.77C807.506,1777.08 808.654,1777.21 811.414,1777.12" style="fill:none;stroke:black;stroke-width:2.5px;"/>
            </g>
            <g transform="matrix(1,0,0,1,0,14.1672)">
                <path d="M804.821,1776.99C807.506,1777.3 808.21,1777.54 810.969,1777.45" style="fill:none;stroke:black;stroke-width:2.5px;"/>
            </g>
            <g transform="matrix(-1,0,0,1,1645.25,0)">
                <path d="M804.821,1776.41C806.529,1776.98 808.654,1777.21 811.414,1777.12" style="fill:none;stroke:black;stroke-width:2.5px;"/>
            </g>
            <g transform="matrix(-1,0,0,1,1645.25,7.17152)">
                <path d="M804.821,1776.84C806.326,1777.23 808.003,1777.29 811.03,1777.41" style="fill:none;stroke:black;stroke-width:2.5px;"/>
            </g>
            <g transform="matrix(-1,0,0,1.15113,1645.25,-254.461)">
                <path d="M804.821,1776.99C805.64,1777.22 808.284,1777.79 811.03,1777.85" style="fill:none;stroke:black;stroke-width:2.5px;"/>
            </g>
            <path d="M792.196,1775.26C793.534,1775.53 795.662,1775.75 796.774,1775.74" style="fill:none;stroke:black;stroke-width:2.5px;"/>
            <g transform="matrix(1,0,0,1,0,6.55191)">
                <path d="M792.196,1775.26C793.534,1775.53 794.945,1775.93 796.057,1775.92" style="fill:none;stroke:black;stroke-width:2.5px;"/>
            </g>
            <g transform="matrix(0.965862,0,0,0.948459,26.4732,104.784)">
                <path d="M792.196,1775.26C793.534,1775.53 795.474,1776.05 796.586,1776.04" style="fill:none;stroke:black;stroke-width:2.5px;"/>
            </g>
            <path d="M796.913,1769.48L796.774,1796.45" style="fill:none;stroke:black;stroke-width:2.5px;"/>
            <g transform="matrix(1,0,0,1,7.16408,1.04846)">
                <path d="M796.913,1769.48L796.774,1796.45" style="fill:none;stroke:black;stroke-width:2.5px;"/>
            </g>
            <g transform="matrix(1,0,0,1,14.6403,1.04846)">
                <path d="M796.913,1769.48L796.774,1796.45" style="fill:none;stroke:black;stroke-width:2.5px;"/>
            </g>
            <g transform="matrix(1,0,0,1,22.0965,1.04846)">
                <path d="M796.913,1769.48L796.774,1796.45" style="fill:none;stroke:black;stroke-width:2.5px;"/>
            </g>
            <g transform="matrix(1,0,0,1,30.2879,1.04846)">
                <path d="M796.913,1769.48L796.774,1796.45" style="fill:none;stroke:black;stroke-width:2.5px;"/>
            </g>
            <g transform="matrix(1,0,0,1,36.4963,0.259661)">
                <path d="M796.913,1769.48L796.774,1796.45" style="fill:none;stroke:black;stroke-width:2.5px;"/>
            </g>
            <g transform="matrix(1,0,0,1,44.3598,-1.04393)">
                <path d="M796.913,1769.48L796.774,1796.45" style="fill:none;stroke:black;stroke-width:2.5px;"/>
            </g>
            <g transform="matrix(0.999997,0.000569567,0.000569567,0.889715,48.3418,192.119)">
                <path d="M796.913,1769.48L796.774,1796.45" style="fill:none;stroke:black;stroke-width:2.5px;"/>
            </g>
            <path d="M791.957,1768.99C821.658,1770.17 841.408,1769.3 847.547,1765.63" style="fill:none;stroke:black;stroke-width:2.5px;"/>
            <path d="M791.957,1762.96C794.245,1763.76 839.284,1764.56 847.547,1759.72" style="fill:none;stroke:black;stroke-width:2.5px;"/>
            <path d="M793.46,1796.77C808.458,1800.71 833.802,1799.68 841.392,1797.35C844.798,1796.3 848.696,1788.56 848.71,1787.08L848.31,1765.62L849.826,1764.05L849.369,1757.29C848.996,1754.92 848.47,1754.05 847.868,1753.94" style="fill:none;stroke:black;stroke-width:2.5px;"/>
            <path d="M780.327,1753.94C776.921,1756.09 777.105,1758.02 781.23,1759.72" style="fill:none;stroke:black;stroke-width:2.5px;"/>
            <g transform="matrix(1,0,0,1,0,6.74109)">
                <path d="M777.94,1751.14C777.862,1757.18 777.173,1758.34 781.23,1759.72" style="fill:none;stroke:black;stroke-width:2.5px;"/>
            </g>
            <g transform="matrix(1,0,0,1,0,12.9161)">
                <path d="M777.94,1751.14C777.862,1757.18 777.173,1758.34 781.23,1759.72" style="fill:none;stroke:black;stroke-width:2.5px;"/>
            </g>
            <g transform="matrix(1,0,0,1,0,18.8466)">
                <path d="M777.94,1751.14C777.862,1757.18 777.173,1758.34 781.23,1759.72" style="fill:none;stroke:black;stroke-width:2.5px;"/>
            </g>
            <g transform="matrix(1,0,0,1,0,25.2006)">
                <path d="M777.94,1751.14C777.862,1757.18 777.173,1758.34 781.23,1759.72" style="fill:none;stroke:black;stroke-width:2.5px;"/>
            </g>
            <g transform="matrix(1,0,0,1,0,30.5577)">
                <path d="M777.94,1751.14C777.862,1757.18 777.173,1760.52 781.23,1761.9" style="fill:none;stroke:black;stroke-width:2.5px;"/>
            </g>
            <path d="M795.185,1719.6C791.978,1723.4 790.131,1728.14 789.148,1733.48" style="fill:none;stroke:black;stroke-width:2.5px;"/>
            <path d="M788.022,1721.58C789.192,1718.72 791.159,1716.29 793.46,1714.05" style="fill:none;stroke:black;stroke-width:2.5px;"/>
            <path d="M813.763,1707.21C813.945,1706.88 814.916,1705.32 820.521,1706.12C821.593,1702.5 820.204,1699.88 816.142,1698.35C814.799,1698.4 810.854,1700.73 811.193,1702.75" style="fill:none;stroke:black;stroke-width:2.5px;"/>
            <path d="M816.819,1712.39C814.929,1714.05 812.002,1707.26 811.193,1703.86C808.823,1702.52 807.418,1703.67 806.25,1705.44C805.298,1711.47 807.077,1715.88 812.028,1720.2C812.895,1720.96 817.611,1720.09 818.668,1718.34C819.523,1716.93 819.423,1714.82 819.17,1711.82C818.185,1711.11 817.5,1711.11 817.087,1711.76" style="fill:none;stroke:black;stroke-width:2.5px;"/>
            <path d="M811.193,1719.68C807.506,1715.99 805.219,1711.52 805.938,1705.41C803.814,1704.14 801.677,1704.85 799.53,1707.23C798.242,1711.38 799.27,1715.69 802.509,1720.14C804.435,1722.58 807.349,1722.55 811.161,1720.25" style="fill:none;stroke:black;stroke-width:2.5px;"/>
            <path d="M802.509,1720.08C800.978,1723.1 797.479,1721.9 795.759,1719.12C792.663,1714.12 793.28,1708.59 797.504,1706.12C798.07,1706 798.659,1706.15 799.304,1707.03" style="fill:none;stroke:black;stroke-width:2.5px;"/>
            <path d="M783.948,1670.01C785.397,1679.44 789.566,1690.29 797.504,1701.02L797.073,1706.12" style="fill:none;stroke:black;stroke-width:2.5px;"/>
            <path d="M789.31,1655.55C788.123,1670.07 793.434,1684.91 805.455,1700.08L811.193,1700.3L810.943,1702.75" style="fill:none;stroke:black;stroke-width:2.5px;"/>
            <path d="M791.367,1800.14C800.635,1803.47 813.54,1809.42 813.164,1814.68C812.947,1817.73 812.904,1820.73 806.726,1821.58L792.537,1821.72" style="fill:none;stroke:black;stroke-width:2.5px;"/>
            <path d="M777.41,1807.18C778.321,1804.72 780.106,1802.38 782.565,1800.14" style="fill:none;stroke:black;stroke-width:2.5px;"/>
            <path d="M758.89,1803.39C749.423,1813.78 750.689,1824.58 762.697,1825.74C774.366,1826.86 783.805,1827.82 788.574,1825.44C795.357,1822.05 792.82,1813.67 785.601,1811.06C779.285,1808.77 772.044,1804.57 768.796,1802.45" style="fill:none;stroke:black;stroke-width:2.5px;"/>
            <path d="M707.86,1603.2C706.295,1617.47 710.844,1629.14 721.652,1638.15" style="fill:none;stroke:black;stroke-width:2.5px;"/>
            <g transform="matrix(0.812909,0,0,0.911909,125.332,144.307)">
                <path d="M707.86,1603.2C706.295,1617.47 710.844,1629.14 721.652,1638.15" style="fill:none;stroke:black;stroke-width:2.5px;"/>
            </g>
            <g transform="matrix(-0.812909,0,0,0.911909,1334.67,137.992)">
                <path d="M712.848,1603.14C710.327,1609.79 708.684,1616.93 714.245,1627.6" style="fill:none;stroke:black;stroke-width:2.5px;"/>
            </g>
            <g transform="matrix(-0.447034,0,0,0.714775,1080.32,455.074)">
                <path d="M712.848,1603.14C710.327,1609.79 708.684,1616.93 714.245,1627.6" style="fill:none;stroke:black;stroke-width:2.5px;"/>
            </g>
            <path d="M732.739,1610.85C734.114,1611.68 735.731,1611.96 737.526,1611.84" style="fill:none;stroke:black;stroke-width:2.5px;"/>
            <ellipse cx="735.698" cy="1590.66" rx="1.199" ry="0.853" style="stroke:black;stroke-width:2.5px;"/>
            <ellipse cx="744.848" cy="1590.66" rx="0.688" ry="0.853" style="stroke:black;stroke-width:2.5px;"/>
            <ellipse cx="739.145" cy="1601.64" rx="1.025" ry="0.956" style="stroke:black;stroke-width:2.5px;"/>
            <ellipse cx="732.739" cy="1601.64" rx="0.679" ry="0.956" style="stroke:black;stroke-width:2.5px;"/>
            <g transform="matrix(1,0,0,1,13.8736,0.604058)">
                <ellipse cx="732.739" cy="1601.64" rx="0.679" ry="0.956" style="stroke:black;stroke-width:2.5px;"/>
            </g>
            <path d="M732.06,1594.63L735.986,1598.18L741.281,1593.86L743.55,1598.4L748.281,1594.97" style="fill:none;stroke:black;stroke-width:2.5px;"/>
            <path d="M723.715,1589.81C724.155,1581.15 731.07,1571.08 738.12,1571.97C750.451,1573.51 752.617,1590.94 747.486,1602.6" style="fill:none;stroke:black;stroke-width:2.5px;"/>
            <path d="M754.345,1638.09C749.289,1643.19 743.551,1649.52 741.867,1648.52C738.194,1638.07 737.037,1630.2 735.491,1621.94C742.955,1619.96 747.122,1615.53 750.473,1610.49C752.091,1605.76 745.564,1603.69 743.924,1606.25C741.58,1609.91 737.791,1613.03 736.037,1613.65C732.267,1614 731.188,1610.87 730.361,1605.04C729.444,1598.56 731.889,1592.73 730.258,1590.3C723.957,1588.53 721.924,1591.9 721.884,1595.06L725.976,1613.65L722.116,1597.24C717.808,1597.72 716.274,1601.05 716.88,1606.56L722.985,1615.77L717.899,1608.1C714.934,1618.2 722.257,1620.62 728.516,1623.83C732.311,1647.75 736.301,1656.9 740.404,1657.6C744.568,1658.64 751.601,1652.07 759.488,1643.23" style="fill:none;stroke:black;stroke-width:2.5px;"/>
            <path d="M786.355,1615.77L782.518,1624.12L784.306,1624.12C775.216,1643.21 769.348,1664.69 771.07,1691.78L758.149,1691.78C765.811,1720.38 770.222,1755.35 759.778,1802.18L768.339,1801.69C776.282,1766.12 776.818,1733.06 771.07,1703.04C772.398,1701.28 773.856,1701.44 775.47,1702.69C780.81,1717.19 783.954,1748.84 782.617,1799.71L791.654,1799.78C791.454,1761.73 790.043,1724.33 780.56,1689.33C784.77,1667.41 786.013,1646.59 786.355,1626.12L789.908,1625.26L793.46,1618.99L786.355,1615.77Z" style="stroke:black;stroke-width:2.5px;"/>
            <path d="M815.734,1710.91C826.585,1708.81 839.861,1731.72 842.584,1759.72L846.778,1759.15C844.728,1736.09 836.419,1711.19 819.349,1706.32" style="fill:none;stroke:black;stroke-width:2.5px;"/>
            <path d="M791.542,1629.25L793.46,1654.2L786.355,1653.95" style="fill:none;stroke:black;stroke-width:2.5px;"/>
            <path d="M797.256,1618.99L793.386,1629.25L789.664,1625.95" style="fill:none;stroke:black;stroke-width:2.5px;"/>
            <path d="M765.002,1643.23C759.598,1658.74 757.737,1675 758.149,1691.74L771.07,1691.78" style="fill:none;stroke:black;stroke-width:2.5px;"/>
            <path d="M775.47,1618.99L752.593,1634.42L761.763,1645.52L777.41,1628.43" style="fill:none;stroke:black;stroke-width:2.5px;"/>
            <path d="M779.908,1610.31L775.47,1616.22L780.902,1623.53" style="fill:none;stroke:black;stroke-width:2.5px;"/>
            <path d="M794.736,1590.57C803.348,1593.35 798.005,1594.65 817.91,1607.4C821.238,1609.53 811.361,1615.08 801.913,1613.3C794.292,1611.86 785.468,1607.28 783.99,1599.16C783.264,1595.17 789.612,1588.92 794.736,1590.57Z" style="stroke:black;stroke-width:2.5px;"/>
            <path d="M829.265,1580.32C855.155,1579.28 851.777,1601.42 828.274,1598" style="fill:none;stroke:black;stroke-width:2.5px;"/>
            <g transform="matrix(1.08079,0,0,0.712494,-66.0003,451.652)">
                <ellipse cx="805.251" cy="1570.86" rx="2.213" ry="4.471" style="stroke:black;stroke-width:2.5px;"/>
            </g>
            <g transform="matrix(0.91158,0,0,0.647438,101.128,553.555)">
                <ellipse cx="805.251" cy="1570.86" rx="2.213" ry="4.471" style="stroke:black;stroke-width:2.5px;"/>
            </g>
            <path d="M772.862,1530.09C779.361,1535.12 784.815,1540.48 786.748,1546.93" style="fill:none;stroke:black;stroke-width:2.5px;"/>
            <path d="M769.989,1546.93C777.202,1543.47 783.173,1542.95 787.413,1546.54C787.171,1539.56 789.818,1534.02 795.637,1530.09" style="fill:none;stroke:black;stroke-width:2.5px;"/>
            <path d="M769.989,1580.94C748.434,1560.94 749.383,1609.25 769.989,1590.89" style="fill:none;stroke:black;stroke-width:2.5px;"/>
            <path d="M827.84,1551.64C795.504,1526.52 760.055,1560.16 772.562,1593.61C780.501,1624.68 817.584,1627.58 836.086,1600.33" style="fill:none;stroke:black;stroke-width:2.5px;"/>
        </g>
    </g>
</svg>
