<?xml version="1.0" encoding="UTF-8" standalone="no"?>
<!DOCTYPE svg PUBLIC "-//W3C//DTD SVG 1.1//EN" "http://www.w3.org/Graphics/SVG/1.1/DTD/svg11.dtd">
<svg width="100%" height="100%" viewBox="0 0 270 217" version="1.1" xmlns="http://www.w3.org/2000/svg" xmlns:xlink="http://www.w3.org/1999/xlink" xml:space="preserve" xmlns:serif="http://www.serif.com/" style="fill-rule:evenodd;clip-rule:evenodd;stroke-linecap:round;stroke-linejoin:round;stroke-miterlimit:1.5;">
    <g transform="matrix(1,0,0,1,-1058.17,-1267.86)">
        <g>
            <g transform="matrix(0.355136,0,0,0.341371,992.692,700.9)">
                <path d="M473.443,1945.55C302.369,1927.65 217.649,1908.17 196.455,1956.69C174.536,2022.96 262.176,2020.46 469.415,2026.49" style="fill:none;stroke:black;stroke-width:17.94px;"/>
            </g>
            <g transform="matrix(1.27895,0,0,0.844488,596.093,-95.4216)">
                <ellipse cx="446.22" cy="1699.54" rx="5.03" ry="9.913" style="fill:none;stroke:black;stroke-width:5.77px;"/>
            </g>
            <g transform="matrix(1.40268,0,0,0.896912,600.026,-180.81)">
                <ellipse cx="446.22" cy="1699.54" rx="5.03" ry="9.913" style="fill:none;stroke:black;stroke-width:5.31px;"/>
            </g>
            <g transform="matrix(1,0,0,1,719.638,-361.251)">
                <path d="M358.25,1753.94C356.105,1763.61 356.959,1770.57 368.628,1772.39C409.181,1778.73 502.152,1780.66 529.196,1784.99C533.653,1785.7 530.893,1798.38 530.893,1798.38" style="fill:none;stroke:black;stroke-width:6.25px;"/>
            </g>
            <g transform="matrix(1,0,0,1,719.638,-361.251)">
                <path d="M374.213,1776.16C366.743,1806.56 407.456,1816.64 412.296,1781.61" style="fill:none;stroke:black;stroke-width:6.25px;"/>
            </g>
            <g transform="matrix(1,0,0,1,772.521,-357.301)">
                <path d="M374.213,1776.16C364.93,1807.26 417.717,1818.34 420.561,1780.12" style="fill:none;stroke:black;stroke-width:6.25px;"/>
            </g>
            <g transform="matrix(1,0,0,1,719.638,-361.251)">
                <path d="M493.339,1671.41C516.332,1645.13 568.125,1663.7 555.202,1709.44C587.985,1698.9 604.67,1708.56 604.544,1731.85C604.435,1752.08 583.165,1760.39 559.084,1749.68L558.886,1798.38" style="fill:none;stroke:black;stroke-width:6.25px;"/>
            </g>
            <g transform="matrix(1,0,0,1,719.638,-361.251)">
                <path d="M523.802,1632.23C531.943,1641.45 536.223,1649.97 538.044,1659.37C550.547,1655.21 561.186,1655.07 567.043,1655.43" style="fill:none;stroke:black;stroke-width:6.25px;"/>
            </g>
            <g transform="matrix(1,0,0,1,719.638,-361.251)">
                <path d="M538.981,1659.37L557.142,1632.23" style="fill:none;stroke:black;stroke-width:6.25px;"/>
            </g>
            <g transform="matrix(1,0,0,1,719.638,-361.251)">
                <path d="M567.043,1728.88C574.922,1724.81 581.742,1725.21 588.23,1728.88" style="fill:none;stroke:black;stroke-width:6.25px;"/>
            </g>
            <g transform="matrix(1,0,0,1,719.638,-361.251)">
                <path d="M577.637,1727.42C578.159,1730.33 577.978,1732.67 576.437,1736" style="fill:none;stroke:black;stroke-width:6.25px;"/>
            </g>
            <g transform="matrix(1,0,0,1,719.638,-361.251)">
                <path d="M519.691,1824.3L523.802,1803.42L567.043,1802.72L571.141,1824.3L519.691,1824.3Z" style="fill:none;stroke:black;stroke-width:6.25px;"/>
            </g>
            <g transform="matrix(1,0,0,1,719.638,-361.251)">
                <path d="M523.802,1824.3C520.119,1830.7 519.421,1836.51 517.624,1842.86" style="fill:none;stroke:black;stroke-width:6.25px;"/>
            </g>
            <g transform="matrix(1,0,0,1,719.638,-361.251)">
                <path d="M567.043,1824.3C570.028,1830.89 571.653,1836.84 571.141,1841.79" style="fill:none;stroke:black;stroke-width:6.25px;"/>
            </g>
        </g>
    </g>
</svg>
