<?xml version="1.0" encoding="UTF-8" standalone="no"?>
<!DOCTYPE svg PUBLIC "-//W3C//DTD SVG 1.1//EN" "http://www.w3.org/Graphics/SVG/1.1/DTD/svg11.dtd">
<svg width="100%" height="100%" viewBox="0 0 198 246" version="1.1" xmlns="http://www.w3.org/2000/svg" xmlns:xlink="http://www.w3.org/1999/xlink" xml:space="preserve" xmlns:serif="http://www.serif.com/" style="fill-rule:evenodd;clip-rule:evenodd;stroke-linecap:round;stroke-linejoin:round;stroke-miterlimit:1.5;">
    <g transform="matrix(1,0,0,1,-754.907,-1250.69)">
        <g>
            <g transform="matrix(1.33109,0,0,1.29804,-1926.3,-2442.03)">
                <path d="M2069.19,2946.66C2037.71,2949.36 2030.2,2959.36 2033.91,2971.67C2036.81,2985.65 2049.97,2982.28 2073.64,2976.47C2083.96,2973.95 2120.28,2985.69 2118.15,2960.27C2116.72,2943.21 2088.96,2944.96 2069.19,2946.66Z" style="fill:none;stroke:black;stroke-width:4.75px;"/>
            </g>
            <g transform="matrix(1.4259,0,0,1.4259,-2123.04,-2818.64)">
                <path d="M2136.22,2917.3L2135.6,2909.41" style="fill:none;stroke:black;stroke-width:4.38px;"/>
            </g>
            <g transform="matrix(1.4259,0,0,1.4259,-2123.04,-2818.64)">
                <path d="M2127.53,2914.92C2132.81,2908.43 2138.1,2906.34 2143.82,2913.36" style="fill:none;stroke:black;stroke-width:4.38px;"/>
            </g>
            <g transform="matrix(1.4259,0,0,1.4259,-2123.04,-2818.64)">
                <path d="M2124.69,2906.33C2146.6,2883.28 2169.13,2931.55 2127.53,2929.71" style="fill:none;stroke:black;stroke-width:4.38px;"/>
            </g>
            <g transform="matrix(1.4259,0,0,1.4259,-2123.04,-2818.64)">
                <path d="M2121.22,2884.4C2122.27,2889.96 2123.41,2895.9 2124.69,2902.4" style="fill:none;stroke:black;stroke-width:4.38px;"/>
            </g>
            <g transform="matrix(1.4259,0,0,1.4259,-2123.04,-2818.64)">
                <path d="M2127.53,2929.71C2129.45,2944.14 2132.18,2958.87 2135.6,2973.85C2143.34,2990.81 2149.91,3007 2154.95,3022.19" style="fill:none;stroke:black;stroke-width:4.38px;"/>
            </g>
            <g transform="matrix(1.4259,0,0,1.4259,-2123.04,-2818.64)">
                <path d="M2033.28,2989.44C2041.78,2995.95 2131.22,2986.13 2135.6,2973.85" style="fill:none;stroke:black;stroke-width:4.38px;"/>
            </g>
            <g transform="matrix(1.4259,0,0,1.4259,-2123.04,-2818.64)">
                <path d="M2020.53,2912.99C2024.91,2944.06 2029.55,2976.55 2036.9,3023.99" style="fill:none;stroke:black;stroke-width:4.38px;"/>
            </g>
            <g transform="matrix(1.4259,0,0,1.4259,-2123.04,-2818.64)">
                <path d="M2054.87,2917.62C2028.71,2947.77 2106.18,2947.13 2084.66,2914.87" style="fill:none;stroke:black;stroke-width:4.38px;"/>
            </g>
            <g transform="matrix(1.4259,0,0,1.4259,-2123.04,-2818.64)">
                <path d="M2020.65,2880.54C2026.79,2872.35 2032.52,2866.57 2037.84,2863.31" style="fill:none;stroke:black;stroke-width:4.38px;"/>
            </g>
            <g transform="matrix(1.4259,0,0,1.4259,-2098.53,-2818.64)">
                <path d="M2022,2880.54C2024.47,2875.21 2029.03,2868.72 2034.35,2864.14" style="fill:none;stroke:black;stroke-width:4.38px;"/>
            </g>
            <g transform="matrix(1.4259,0,0,1.4259,-2074.02,-2818.64)">
                <path d="M2026.75,2880.54C2028.51,2871.26 2028.16,2867.9 2028.59,2863.31" style="fill:none;stroke:black;stroke-width:4.38px;"/>
            </g>
            <g transform="matrix(1.4259,0,0,1.4259,-2049.51,-2818.64)">
                <path d="M2025.41,2877.97C2025.3,2871.55 2021.95,2865.57 2020.33,2861.95" style="fill:none;stroke:black;stroke-width:4.38px;"/>
            </g>
            <g transform="matrix(1.4259,0,0,1.4259,-2019.31,-2818.64)">
                <path d="M2021.39,2875.15C2016.06,2865.81 2012.88,2862.91 2009.9,2860.48" style="fill:none;stroke:black;stroke-width:4.38px;"/>
            </g>
            <g transform="matrix(1.4259,0,0,1.4259,-1994.8,-2817.47)">
                <path d="M2019.61,2869.14C2013.58,2862.06 2009.48,2859.76 2006.21,2858.01" style="fill:none;stroke:black;stroke-width:4.38px;"/>
            </g>
            <g transform="matrix(1.4259,0,0,1.4259,-1975.36,-2817.47)">
                <path d="M2020.46,2863.58C2016.54,2860.04 2010.55,2856.42 2005.97,2855.24" style="fill:none;stroke:black;stroke-width:4.38px;"/>
            </g>
            <g transform="matrix(3.44513,-0.446183,0.336905,2.60136,-7212.58,-5327.23)">
                <ellipse cx="2036" cy="2907.89" rx="1.483" ry="2.354" style="fill:none;stroke:black;stroke-width:2.03px;"/>
            </g>
            <g transform="matrix(3.19304,-0.413534,0.36908,2.84979,-6706.58,-6130.03)">
                <ellipse cx="2036" cy="2907.89" rx="1.483" ry="2.354" style="fill:none;stroke:black;stroke-width:2.05px;"/>
            </g>
            <g transform="matrix(1.4259,0,0,1.4259,-2122.89,-2823.39)">
                <path d="M2046.54,2955.96C2047.77,2953.71 2063.16,2950.69 2063.77,2951.31C2065.23,2952.79 2064.65,2962.78 2056.48,2963.56C2049.52,2964.23 2045.8,2957.31 2046.54,2955.96Z" style="fill:none;stroke:black;stroke-width:4.38px;"/>
            </g>
            <g transform="matrix(1.37793,0.366748,-0.366748,1.37793,-894.371,-3441.15)">
                <path d="M2046.58,2956.15C2046.93,2954.51 2063.15,2950.95 2063.77,2951.31C2064.83,2951.93 2064.93,2962.05 2056.64,2963.82C2049.79,2965.27 2046.23,2957.8 2046.58,2956.15Z" style="fill:none;stroke:black;stroke-width:4.38px;"/>
            </g>
        </g>
    </g>
</svg>
