<?xml version="1.0" encoding="UTF-8" standalone="no"?>
<!DOCTYPE svg PUBLIC "-//W3C//DTD SVG 1.1//EN" "http://www.w3.org/Graphics/SVG/1.1/DTD/svg11.dtd">
<svg width="100%" height="100%" viewBox="0 0 236 278" version="1.1" xmlns="http://www.w3.org/2000/svg" xmlns:xlink="http://www.w3.org/1999/xlink" xml:space="preserve" xmlns:serif="http://www.serif.com/" style="fill-rule:evenodd;clip-rule:evenodd;stroke-linecap:round;stroke-linejoin:round;stroke-miterlimit:1.5;">
    <g transform="matrix(1,0,0,1,-48.0689,-1236.97)">
        <g transform="matrix(1.86313,0,0,1.86313,-3612.59,-1573.71)">
            <path d="M2022.55,1623.28C2023.07,1635.34 2025.02,1646.32 2028.89,1655.87" style="fill:none;stroke:black;stroke-width:3.35px;"/>
            <path d="M2002.33,1616.4C1996.62,1626.96 1992.61,1637.77 1989.43,1649.57" style="fill:none;stroke:black;stroke-width:3.35px;"/>
            <path d="M1981.52,1575.87C1955.72,1576.35 1966.85,1608.85 1986.73,1597.71" style="fill:none;stroke:black;stroke-width:3.35px;"/>
            <g transform="matrix(1.16226,0,0,1.19886,-327.634,-313.527)">
                <ellipse cx="2010.27" cy="1566.79" rx="2.854" ry="3.2" style="fill:none;stroke:black;stroke-width:2.84px;"/>
            </g>
            <g transform="matrix(1.16226,0,0,1.19886,-280.096,-324.626)">
                <ellipse cx="2010.27" cy="1566.79" rx="2.854" ry="3.2" style="fill:none;stroke:black;stroke-width:2.84px;"/>
            </g>
            <path d="M1971.99,1561.54L1981.37,1561.54" style="fill:none;stroke:black;stroke-width:3.35px;"/>
            <g transform="matrix(0.899495,0.436931,-0.436931,0.899495,887.516,-726.587)">
                <path d="M1971.99,1561.54L1981.37,1561.54" style="fill:none;stroke:black;stroke-width:3.35px;"/>
            </g>
            <g transform="matrix(0.647169,0.762346,-0.762346,0.647169,1909.29,-992.625)">
                <path d="M1971.99,1561.54L1981.37,1561.54" style="fill:none;stroke:black;stroke-width:3.35px;"/>
            </g>
            <g transform="matrix(0.0233475,0.999727,-0.999727,0.0233475,3536.73,-497.657)">
                <path d="M1971.99,1561.54L1981.37,1561.54" style="fill:none;stroke:black;stroke-width:3.35px;"/>
            </g>
            <g transform="matrix(-0.191771,0.843065,-0.975092,-0.221803,3946.18,195.561)">
                <path d="M1971.99,1561.54L1981.37,1561.54" style="fill:none;stroke:black;stroke-width:3.59px;"/>
            </g>
            <path d="M2062.53,1564.46C2078.15,1559.12 2087.66,1560.91 2089.67,1571.45C2090.08,1582.53 2079.04,1585.92 2064.48,1586.95" style="fill:none;stroke:black;stroke-width:3.35px;"/>
            <path d="M2046.02,1541.69L2059.16,1536.24" style="fill:none;stroke:black;stroke-width:3.35px;"/>
            <path d="M1997.52,1550.92L2013.6,1548.35" style="fill:none;stroke:black;stroke-width:3.35px;"/>
            <path d="M2000.64,1601.67L2006.23,1595.85" style="fill:none;stroke:black;stroke-width:3.35px;"/>
            <path d="M2046.66,1521.29C2002.81,1511.42 1972.63,1547.04 1983.89,1588.37C1995.94,1632.61 2068.52,1637.86 2076.27,1586.37" style="fill:none;stroke:black;stroke-width:3.35px;"/>
            <path d="M2003.66,1598.77C2018.12,1613.66 2034.63,1616.57 2053.27,1606.9" style="fill:none;stroke:black;stroke-width:3.35px;"/>
        </g>
    </g>
</svg>
